<?xml version="1.0" encoding="UTF-8" standalone="no"?>
<svg width="200px" height="202px" viewBox="0 0 200 202" version="1.1" xmlns="http://www.w3.org/2000/svg" xmlns:xlink="http://www.w3.org/1999/xlink" xmlns:sketch="http://www.bohemiancoding.com/sketch/ns">
    <!-- Generator: Sketch 3.2.2 (9983) - http://www.bohemiancoding.com/sketch -->
    <title>Untitled</title>
    <desc>Created with Sketch.</desc>
    <defs></defs>
    <g id="Page-1" stroke="none" stroke-width="1" fill="none" fill-rule="evenodd" sketch:type="MSPage">
        <g id="404" sketch:type="MSLayerGroup">
            <g id="layer1" sketch:type="MSShapeGroup">
                <g>
                    <g id="g2049">
                        <rect id="rect2138" fill="#000000" x="0" y="0.2689747" width="200" height="201.731025" rx="37.5"></rect>
                        <path d="M196.666728,101.13439 C196.674764,135.974359 178.251955,168.171287 148.339878,185.593612 C118.427801,203.015937 81.5722823,203.015937 51.6602053,185.593612 C21.7481283,168.171287 3.32531964,135.974359 3.33335544,101.13439 C3.32531964,66.2944204 21.7481283,34.0974928 51.6602053,16.6751678 C81.5722823,-0.747157121 118.427801,-0.747157121 148.339878,16.6751678 C178.251955,34.0974928 196.674764,66.2944204 196.666728,101.13439 L196.666728,101.13439 Z" id="path2140" fill="#FFFFFF"></path>
                        <path d="M100,22.963715 C57.219984,22.963715 22.5,57.984221 22.5,101.134487 C22.5,144.284754 57.2199787,179.30526 100,179.30526 C142.780021,179.30526 177.5,144.284781 177.5,101.134487 C177.5,57.984221 142.780008,22.963715 100,22.963715 L100,22.963715 Z M100,28.6282711 C139.679992,28.6282711 171.884059,61.1110519 171.884059,101.134487 C171.884059,141.157923 139.679992,173.640706 100,173.640706 C60.320016,173.640706 28.1159413,141.157923 28.1159413,101.134487 C28.1159413,61.1110519 60.320016,28.6282711 100,28.6282711 L100,28.6282711 Z" id="path2144" fill="#FF0000"></path>
                        <path d="M69.3662853,114.158019 L69.3662853,127.1023 L61.298624,127.1023 L61.298624,114.158019 L35.784648,114.158019 L35.784648,109.273161 L61.298624,75.1666826 L69.3662853,75.1666826 L69.3662853,106.716003 L74.2866187,106.716003 L74.2866187,114.158019 L69.3662853,114.158019 L69.3662853,114.158019 Z M61.298624,87.1813037 L46.619704,106.716003 L61.298624,106.716003 L61.298624,87.1813037 L61.298624,87.1813037 Z M117.828904,101.211371 C117.828861,105.346373 117.342224,109.299989 116.368984,113.072233 C115.395667,116.844503 114.012363,119.893692 112.219064,122.21981 C109.350011,126.094578 105.200485,128.03196 99.7704773,128.03196 C96.1321947,128.03196 93.134968,127.282871 90.7787893,125.78469 C88.4225813,124.286512 86.4760267,121.935159 84.9391173,118.730624 C83.8634213,116.508597 82.992552,113.80872 82.3265093,110.630986 C81.6604507,107.453287 81.3274267,104.313419 81.327432,101.211371 C81.3274267,96.9234517 81.8269653,92.9449985 82.8260453,89.275998 C83.8251147,85.6070728 85.1955227,82.5322562 86.9372693,80.0515402 C88.4741787,78.0881836 90.305816,76.6282481 92.4321893,75.6717284 C94.5585333,74.7153108 97.1070347,74.2370765 100.077707,74.2370227 C103.356339,74.2370765 106.148355,74.9865583 108.453765,76.4854764 C110.759112,77.9844939 112.731856,80.3354538 114.372005,83.5383588 C115.447653,85.8645246 116.292725,88.5778042 116.907221,91.6782111 C117.521635,94.7786905 117.828861,97.956406 117.828904,101.211371 L117.828904,101.211371 L117.828904,101.211371 Z M109.683851,101.211371 C109.683816,98.2670826 109.427795,95.5415781 108.915781,93.0348549 C108.403701,90.528199 107.634851,88.3964454 106.609227,86.6395941 C105.789923,85.2960036 104.855341,84.3143024 103.80548,83.6944852 C102.755563,83.0747567 101.46216,82.712827 99.925264,82.6086989 C97.9270907,82.5062356 96.2619627,82.9714597 94.9298827,84.0043736 C93.5977627,85.0373709 92.4962773,86.7169081 91.625424,89.0429906 C90.95936,90.5932505 90.4598213,92.4663688 90.1268107,94.6623509 C89.7937707,96.8584002 89.6272587,99.0414042 89.627272,101.211371 C89.6272587,104.002742 89.88328,106.690396 90.3953413,109.274345 C90.9073733,111.858326 91.67544,113.976674 92.6995493,115.629391 C93.520368,116.973033 94.4940373,117.980755 95.6205573,118.652562 C96.74704,119.324386 98.130344,119.660292 99.7704773,119.660284 C101.665413,119.660292 103.24064,119.143815 104.496157,118.11085 C105.751619,117.077904 106.814797,115.398366 107.685696,113.072233 C107.94208,112.400431 108.198493,111.586683 108.454939,110.630986 C108.71132,109.675322 108.929037,108.6676 109.108091,107.607815 C109.28708,106.548071 109.427795,105.475691 109.530237,104.390668 C109.632611,103.305694 109.683816,102.245931 109.683851,101.211371 L109.683851,101.211371 L109.683851,101.211371 Z M153.509912,114.158019 L153.509912,127.1023 L145.442253,127.1023 L145.442253,114.158019 L119.928277,114.158019 L119.928277,109.273161 L145.442253,75.1666826 L153.509912,75.1666826 L153.509912,106.716003 L158.430248,106.716003 L158.430248,114.158019 L153.509912,114.158019 L153.509912,114.158019 Z M145.442253,87.1813037 L130.763333,106.716003 L145.442253,106.716003 L145.442253,87.1813037 L145.442253,87.1813037 Z" id="text2147" fill="#000000"></path>
                        <path d="M80.7442502,27.0416763 L80.7442502,12.7523953 L85.987492,12.7523953 L85.987492,27.0416763 L80.7442502,27.0416763 L80.7442502,27.0416763 Z" id="rect2010" fill="#FF0000"></path>
                        <path d="M92.279382,23.6794925 L92.279382,6.86857372 L97.5226238,6.86857372 L97.5226238,23.6794925 L92.279382,23.6794925 L92.279382,23.6794925 Z" id="rect2012" fill="#FF0000"></path>
                        <path d="M103.814514,23.6794925 L103.814514,6.86857372 L109.057756,6.86857372 L109.057756,23.6794925 L103.814514,23.6794925 L103.814514,23.6794925 Z" id="rect2014" fill="#FF0000"></path>
                        <path d="M115.349646,27.0416763 L115.349646,12.7523953 L120.592887,12.7523953 L120.592887,27.0416763 L115.349646,27.0416763 L115.349646,27.0416763 Z" id="rect2016" fill="#FF0000"></path>
                        <rect id="rect2022" fill="#FF0000" x="173.457032" y="81.1715213" width="14.1666667" height="5.25341212"></rect>
                        <rect id="rect2024" fill="#FF0000" x="176.790365" y="92.729028" width="16.6666667" height="5.25341212"></rect>
                        <rect id="rect2026" fill="#FF0000" x="176.790365" y="104.286535" width="16.6666667" height="5.25341212"></rect>
                        <rect id="rect2028" fill="#FF0000" x="173.457032" y="115.844041" width="14.1666667" height="5.25341212"></rect>
                        <path d="M120.59456,175.23032 L120.59456,189.519601 L115.351318,189.519601 L115.351318,175.23032 L120.59456,175.23032 L120.59456,175.23032 Z" id="rect2034" fill="#FF0000"></path>
                        <path d="M109.059428,178.592504 L109.059428,195.403422 L103.816186,195.403422 L103.816186,178.592504 L109.059428,178.592504 L109.059428,178.592504 Z" id="rect2036" fill="#FF0000"></path>
                        <path d="M97.5242962,178.592504 L97.5242962,195.403422 L92.2810545,195.403422 L92.2810545,178.592504 L97.5242962,178.592504 L97.5242962,178.592504 Z" id="rect2038" fill="#FF0000"></path>
                        <path d="M85.9891644,175.23032 L85.9891644,189.519601 L80.7459227,189.519601 L80.7459227,175.23032 L85.9891644,175.23032 L85.9891644,175.23032 Z" id="rect2040" fill="#FF0000"></path>
                        <rect id="rect2046" fill="#FF0000" transform="translate(19.456667, 118.470747) scale(-1, -1) translate(-19.456667, -118.470747) " x="12.3733339" y="115.844041" width="14.1666667" height="5.25341212"></rect>
                        <rect id="rect2048" fill="#FF0000" transform="translate(14.873334, 106.913241) scale(-1, -1) translate(-14.873334, -106.913241) " x="6.54000053" y="104.286535" width="16.6666667" height="5.25341212"></rect>
                        <rect id="rect2050" fill="#FF0000" transform="translate(14.873334, 95.355734) scale(-1, -1) translate(-14.873334, -95.355734) " x="6.54000053" y="92.729028" width="16.6666667" height="5.25341212"></rect>
                        <rect id="rect2052" fill="#FF0000" transform="translate(19.456667, 83.798227) scale(-1, -1) translate(-19.456667, -83.798227) " x="12.3733339" y="81.1715213" width="14.1666667" height="5.25341212"></rect>
                    </g>
                </g>
            </g>
        </g>
    </g>
</svg>