<svg width="200" height="202" viewBox="0 0 200 202" xmlns="http://www.w3.org/2000/svg"><title>Untitled</title><desc>Created with Sketch.</desc><g fill="none" fill-rule="evenodd"><g><g><g><rect fill="#000" y=".269" width="200" height="201.731" rx="37.5"/><path d="M196.667 101.134c.008 34.84-18.415 67.037-48.327 84.46-29.912 17.422-66.768 17.422-96.68 0-29.912-17.423-48.335-49.62-48.327-84.46-.008-34.84 18.415-67.037 48.327-84.46 29.912-17.42 66.768-17.42 96.68 0 29.912 17.423 48.335 49.62 48.327 84.46z" fill="#fff"/><path d="M100 22.964c-42.78 0-77.5 35.02-77.5 78.17s34.72 78.17 77.5 78.17 77.5-35.02 77.5-78.17-34.72-78.17-77.5-78.17zm0 5.664c39.68 0 71.884 32.483 71.884 72.506 0 40.024-32.204 72.507-71.884 72.507s-71.884-32.482-71.884-72.506c0-40.023 32.204-72.506 71.884-72.506z" fill="#f00"/><path d="M69.366 114.158v12.944H61.3v-12.944H35.784v-4.885L61.3 75.167h8.066v31.55h4.92v7.44h-4.92zM61.3 87.18l-14.68 19.536H61.3V87.18zm56.53 14.03c0 4.136-.488 8.09-1.46 11.862-.974 3.773-2.358 6.822-4.15 9.148-2.87 3.875-7.02 5.812-12.45 5.812-3.638 0-6.635-.75-8.99-2.247-2.357-1.498-4.304-3.85-5.84-7.054-1.077-2.22-1.947-4.92-2.613-8.1-.667-3.177-1-6.317-1-9.42 0-4.287.5-8.265 1.5-11.934.998-3.67 2.37-6.744 4.11-9.224 1.537-1.964 3.37-3.424 5.495-4.38 2.127-.957 4.675-1.435 7.646-1.435 3.278 0 6.07.75 8.376 2.248 2.305 1.5 4.278 3.85 5.918 7.053 1.076 2.327 1.92 5.04 2.535 8.14.615 3.1.922 6.278.922 9.533zm-8.146 0c0-2.943-.256-5.668-.768-8.175-.512-2.507-1.28-4.64-2.307-6.395-.82-1.344-1.755-2.326-2.805-2.946-1.05-.62-2.343-.98-3.88-1.085-1.998-.104-3.663.36-4.995 1.394-1.332 1.033-2.434 2.713-3.305 5.04-.666 1.55-1.165 3.422-1.498 5.618-.333 2.196-.5 4.38-.5 6.55 0 2.79.256 5.478.768 8.062.512 2.584 1.28 4.703 2.305 6.355.82 1.343 1.794 2.35 2.92 3.023 1.127.67 2.51 1.007 4.15 1.007 1.895 0 3.47-.516 4.726-1.55 1.256-1.032 2.32-2.712 3.19-5.038.256-.672.512-1.485.77-2.44.255-.957.473-1.964.652-3.024.18-1.06.32-2.132.422-3.217.103-1.084.154-2.144.154-3.18zm43.826 12.948v12.944h-8.068v-12.944h-25.514v-4.885l25.514-34.106h8.068v31.55h4.92v7.44h-4.92zm-8.068-26.977l-14.68 19.536h14.68V87.18z" fill="#000"/><path d="M80.744 27.042v-14.29h5.243v14.29h-5.243z" fill="#f00"/><path d="M92.28 23.68V6.87h5.243v16.81H92.28z" fill="#f00"/><path d="M103.815 23.68V6.87h5.243v16.81h-5.243z" fill="#f00"/><path d="M115.35 27.042v-14.29h5.243v14.29h-5.243z" fill="#f00"/><path fill="#f00" d="M173.457 81.172h14.167v5.253h-14.167z"/><path fill="#f00" d="M176.79 92.73h16.667v5.252H176.79z"/><path fill="#f00" d="M176.79 104.287h16.667v5.253H176.79z"/><path fill="#f00" d="M173.457 115.844h14.167v5.253h-14.167z"/><path d="M120.595 175.23v14.29h-5.244v-14.29h5.245z" fill="#f00"/><path d="M109.06 178.593v16.81h-5.244v-16.81h5.243z" fill="#f00"/><path d="M97.524 178.593v16.81H92.28v-16.81h5.244z" fill="#f00"/><path d="M85.99 175.23v14.29h-5.244v-14.29h5.243z" fill="#f00"/><path fill="#f00" d="M26.54 121.098H12.375v-5.253H26.54z"/><path fill="#f00" d="M23.206 109.54H6.54v-5.254h16.666z"/><path fill="#f00" d="M23.206 97.983H6.54V92.73h16.666z"/><path fill="#f00" d="M26.54 86.424H12.375V81.17H26.54z"/></g></g></g></g></svg>