<svg height="48" viewBox="0 0 48 48" width="48" xmlns="http://www.w3.org/2000/svg"><path d="M24 0C10.745 0 0 10.746 0 24c0 13.255 10.745 24 24 24s24-10.744 24-24C48 10.746 37.255 0 24 0zm.03 43.844c-11.024 0-19.96-8.936-19.96-19.958s8.936-19.96 19.96-19.96c11.02 0 19.958 8.936 19.958 19.96s-8.936 19.958-19.96 19.958zM32.56 21.902h-6.458l.008-6.576c-.026-.454-.22-1.354-1.33-1.356l-1.58-.002c-1.18 0-1.282 1.165-1.288 1.47l-.008 6.463h-6.607c-1.22 0-1.323.942-1.328 1.21v1.81c.005.247.106 1.178 1.327 1.178H21.9l-.01 6.602c0 1.22.94 1.324 1.21 1.33l1.81.002c.246-.006 1.177-.107 1.18-1.326l.007-6.607h6.58c.455-.028 1.355-.224 1.355-1.334v-1.578c0-1.18-1.167-1.28-1.472-1.286z"/></svg>